<?xml version="1.0" standalone="no"?>
<!DOCTYPE svg PUBLIC "-//W3C//DTD SVG 20010904//EN"
 "http://www.w3.org/TR/2001/REC-SVG-20010904/DTD/svg10.dtd">
<svg version="1.0" xmlns="http://www.w3.org/2000/svg"
 width="512.000000pt" height="512.000000pt" viewBox="0 0 512.000000 512.000000"
 preserveAspectRatio="xMidYMid meet">

<g transform="translate(0.000000,512.000000) scale(0.100000,-0.100000)"
fill="#000000" stroke="none">
<path d="M675 4731 c-59 -35 -65 -55 -65 -217 0 -132 2 -149 21 -175 28 -40
69 -59 124 -59 l45 0 0 -1326 c0 -1259 -1 -1326 -17 -1319 -10 5 -49 15 -86
23 -191 43 -392 -59 -480 -245 -30 -64 -32 -75 -32 -178 0 -103 2 -114 32
-178 55 -115 156 -204 271 -238 l42 -12 0 -139 0 -138 -240 0 -241 0 -24 -25
c-14 -13 -25 -36 -25 -50 0 -14 11 -37 25 -50 l24 -25 2511 0 2511 0 24 25
c32 31 32 69 0 100 l-24 25 -231 0 -230 0 0 138 0 139 43 12 c114 34 215 123
270 238 30 64 32 75 32 178 0 103 -2 114 -32 178 -84 177 -274 281 -455 249
-35 -6 -73 -14 -85 -18 l-23 -6 0 140 c0 140 0 141 -26 161 -43 34 -86 26
-109 -20 -12 -21 -15 -70 -15 -207 l0 -180 -34 -51 c-55 -81 -76 -149 -76
-246 0 -97 21 -165 76 -246 l34 -51 0 -204 0 -204 -730 0 -730 0 0 1199 0
1200 -26 20 c-46 36 -93 22 -114 -33 -7 -18 -10 -415 -10 -1207 l0 -1179 -825
0 -825 0 0 212 0 213 43 84 42 84 0 112 0 112 -42 84 -43 84 0 1383 0 1382
825 0 824 0 3 -529 c3 -504 4 -530 22 -550 25 -27 79 -28 106 -1 19 19 20 33
20 210 l0 190 730 0 730 0 0 -680 c0 -578 2 -685 15 -709 23 -46 66 -54 109
-20 l26 20 0 695 0 694 25 0 c36 0 80 25 104 59 19 26 21 43 21 176 0 133 -2
150 -21 176 -44 62 1 59 -909 59 l-830 0 0 105 0 105 45 0 c57 0 100 22 125
63 17 28 20 51 20 172 0 121 -3 144 -20 172 -40 67 32 63 -1147 63 -1023 0
-1069 -1 -1098 -19z m2115 -216 l0 -85 -1015 0 -1015 0 0 85 0 85 1015 0 1015
0 0 -85z m1570 -680 l0 -85 -805 0 -805 0 0 85 0 85 805 0 805 0 0 -85z
m-3628 -2345 c104 -53 158 -140 158 -256 0 -111 -54 -200 -155 -253 l-40 -21
-6 52 c-9 78 -16 95 -49 108 -24 10 -36 10 -60 0 -33 -13 -40 -30 -49 -108
l-6 -52 -40 21 c-101 53 -155 142 -155 253 1 132 78 237 201 275 52 16 152 7
201 -19z m3920 0 c104 -53 158 -140 158 -256 0 -111 -54 -200 -155 -253 l-40
-21 -6 52 c-9 78 -16 95 -49 108 -24 10 -36 10 -60 0 -33 -13 -40 -30 -49
-108 l-6 -52 -40 21 c-101 53 -155 142 -155 253 1 132 78 237 201 275 52 16
152 7 201 -19z m-3852 -805 l0 -155 -55 0 -55 0 0 138 0 138 48 16 c26 9 50
17 55 17 4 1 7 -69 7 -154z m3611 133 l39 -11 0 -139 0 -138 -45 0 -45 0 0
150 c0 83 3 150 6 150 4 0 24 -5 45 -12z"/>
<path d="M1309 4095 c-14 -8 -35 -27 -45 -42 -18 -26 -19 -52 -19 -413 0 -429
-1 -420 70 -454 49 -23 870 -24 919 -1 66 32 66 31 66 455 0 418 -1 424 -60
455 -42 22 -891 22 -931 0z m241 -325 l0 -190 -80 0 -80 0 0 190 0 190 80 0
80 0 0 -190z m290 0 l0 -190 -70 0 -70 0 0 190 0 190 70 0 70 0 0 -190z m310
0 l0 -190 -75 0 -75 0 0 190 0 190 75 0 75 0 0 -190z m0 -395 l0 -55 -380 0
-380 0 0 48 c0 27 3 52 7 55 3 4 174 7 380 7 l373 0 0 -55z"/>
<path d="M2991 3452 c-64 -34 -71 -62 -71 -280 0 -217 7 -246 65 -282 28 -17
49 -20 169 -20 151 0 179 8 215 59 20 27 21 43 21 236 0 229 -5 250 -63 285
-28 17 -51 20 -167 20 -112 0 -141 -3 -169 -18z m249 -282 l0 -150 -85 0 -85
0 0 150 0 150 85 0 85 0 0 -150z"/>
<path d="M3601 3452 c-64 -34 -71 -62 -71 -280 0 -217 7 -246 65 -282 28 -17
49 -20 169 -20 151 0 179 8 215 59 20 27 21 43 21 236 0 229 -5 250 -63 285
-28 17 -51 20 -167 20 -112 0 -141 -3 -169 -18z m249 -282 l0 -150 -85 0 -85
0 0 150 0 150 85 0 85 0 0 -150z"/>
<path d="M1309 2985 c-14 -8 -35 -27 -45 -42 -18 -26 -19 -52 -19 -413 0 -429
-1 -420 70 -454 49 -23 870 -24 919 -1 66 32 66 31 66 455 0 418 -1 424 -60
455 -42 22 -891 22 -931 0z m241 -325 l0 -190 -80 0 -80 0 0 190 0 190 80 0
80 0 0 -190z m290 0 l0 -190 -70 0 -70 0 0 190 0 190 70 0 70 0 0 -190z m310
0 l0 -190 -75 0 -75 0 0 190 0 190 75 0 75 0 0 -190z m0 -395 l0 -55 -380 0
-380 0 0 48 c0 27 3 52 7 55 3 4 174 7 380 7 l373 0 0 -55z"/>
<path d="M2985 2750 c-59 -39 -65 -64 -65 -280 0 -170 2 -200 18 -229 32 -60
68 -71 222 -71 116 0 139 3 167 20 58 35 63 56 63 285 0 193 -1 209 -21 236
-36 51 -64 59 -216 59 -121 0 -142 -3 -168 -20z m255 -280 l0 -150 -85 0 -85
0 0 150 0 150 85 0 85 0 0 -150z"/>
<path d="M3595 2750 c-59 -39 -65 -64 -65 -280 0 -170 2 -200 18 -229 32 -60
68 -71 222 -71 116 0 139 3 167 20 58 35 63 56 63 285 0 193 -1 209 -21 236
-36 51 -64 59 -216 59 -121 0 -142 -3 -168 -20z m255 -280 l0 -150 -85 0 -85
0 0 150 0 150 85 0 85 0 0 -150z"/>
<path d="M2985 2050 c-59 -39 -65 -64 -65 -280 0 -170 2 -200 18 -229 32 -60
68 -71 222 -71 116 0 139 3 167 20 58 35 63 56 63 288 0 197 -1 211 -21 236
-38 49 -66 56 -216 56 -121 0 -142 -3 -168 -20z m255 -280 l0 -150 -85 0 -85
0 0 150 0 150 85 0 85 0 0 -150z"/>
<path d="M3595 2050 c-59 -39 -65 -64 -65 -280 0 -170 2 -200 18 -229 32 -60
68 -71 222 -71 116 0 139 3 167 20 58 35 63 56 63 288 0 197 -1 211 -21 236
-38 49 -66 56 -216 56 -121 0 -142 -3 -168 -20z m255 -280 l0 -150 -85 0 -85
0 0 150 0 150 85 0 85 0 0 -150z"/>
<path d="M1309 1875 c-14 -8 -35 -27 -45 -42 -18 -26 -19 -52 -19 -413 0 -355
1 -387 18 -412 36 -52 66 -58 291 -58 206 0 207 0 231 25 32 31 32 69 0 100
-24 25 -26 25 -210 25 l-186 0 3 53 3 52 378 3 377 2 0 -55 0 -55 -36 0 c-36
0 -73 -15 -86 -34 -4 -6 -8 -24 -8 -41 0 -36 8 -48 37 -64 31 -16 139 -14 177
4 66 32 66 31 66 455 0 418 -1 424 -60 455 -42 22 -891 22 -931 0z m241 -325
l0 -190 -80 0 -80 0 0 190 0 190 80 0 80 0 0 -190z m290 0 l0 -190 -70 0 -70
0 0 190 0 190 70 0 70 0 0 -190z m310 0 l0 -190 -75 0 -75 0 0 190 0 190 75 0
75 0 0 -190z"/>
<path d="M2985 1350 c-59 -39 -65 -64 -65 -280 0 -170 2 -200 18 -229 32 -60
68 -71 222 -71 116 0 139 3 167 20 58 35 63 56 63 288 0 197 -1 211 -21 236
-38 49 -66 56 -216 56 -121 0 -142 -3 -168 -20z m255 -280 l0 -150 -85 0 -85
0 0 150 0 150 85 0 85 0 0 -150z"/>
<path d="M3595 1350 c-59 -39 -65 -64 -65 -280 0 -170 2 -200 18 -229 32 -60
68 -71 222 -71 116 0 139 3 167 20 58 35 63 56 63 288 0 197 -1 211 -21 236
-38 49 -66 56 -216 56 -121 0 -142 -3 -168 -20z m255 -280 l0 -150 -85 0 -85
0 0 150 0 150 85 0 85 0 0 -150z"/>
</g>
</svg>
