<?xml version="1.0" standalone="no"?>
<!DOCTYPE svg PUBLIC "-//W3C//DTD SVG 20010904//EN"
 "http://www.w3.org/TR/2001/REC-SVG-20010904/DTD/svg10.dtd">
<svg version="1.0" xmlns="http://www.w3.org/2000/svg"
 width="512.000000pt" height="512.000000pt" viewBox="0 0 512.000000 512.000000"
 preserveAspectRatio="xMidYMid meet">

<g transform="translate(0.000000,512.000000) scale(0.100000,-0.100000)"
fill="#000000" stroke="none">
<path d="M0 2118 c0 -1342 3 -1945 11 -1972 14 -50 82 -118 135 -134 32 -9
585 -12 2508 -12 l2466 0 0 215 0 215 -2345 0 -2345 0 0 1810 0 1810 -215 0
-215 0 0 -1932z"/>
<path d="M3965 4033 c-47 -24 -86 -64 -106 -108 -18 -38 -19 -105 -19 -1662
l0 -1623 535 0 535 0 -2 1627 -3 1628 -22 40 c-27 50 -58 80 -105 100 -56 23
-768 22 -813 -2z"/>
<path d="M2480 3184 c-45 -20 -87 -59 -111 -106 -18 -36 -19 -76 -19 -1238 l0
-1200 530 0 530 0 0 1200 c0 1162 -1 1202 -19 1238 -25 48 -66 87 -113 106
-55 23 -745 23 -798 0z"/>
<path d="M1008 2338 c-21 -5 -58 -28 -82 -50 -79 -68 -76 -37 -76 -895 l0
-753 535 0 535 0 0 769 0 769 -28 53 c-20 39 -41 62 -77 84 l-48 30 -361 2
c-219 1 -376 -2 -398 -9z"/>
</g>
</svg>
