<svg width="17" height="16" viewBox="0 0 17 16" fill="none" xmlns="http://www.w3.org/2000/svg">
<g clip-path="url(#clip0_6_206)">
<path d="M16.6665 8.04894C16.6665 3.60294 13.0845 -0.00106049 8.66649 -0.00106049C4.24649 -6.04858e-05 0.66449 3.60294 0.66449 8.04994C0.66449 12.0669 3.59049 15.3969 7.41449 16.0009V10.3759H5.38449V8.04994H7.41649V6.27494C7.41649 4.25794 8.61149 3.14394 10.4385 3.14394C11.3145 3.14394 12.2295 3.30094 12.2295 3.30094V5.28094H11.2205C10.2275 5.28094 9.91749 5.90194 9.91749 6.53894V8.04894H12.1355L11.7815 10.3749H9.91649V15.9999C13.7405 15.3959 16.6665 12.0659 16.6665 8.04894Z" fill="#059BE5"/>
</g>
<defs>
<clipPath id="clip0_6_206">
<rect x="0.666626" width="16" height="16" rx="8" fill="white"/>
</clipPath>
</defs>
</svg>
