<?xml version="1.0" standalone="no"?>
<!DOCTYPE svg PUBLIC "-//W3C//DTD SVG 20010904//EN"
 "http://www.w3.org/TR/2001/REC-SVG-20010904/DTD/svg10.dtd">
<svg version="1.0" xmlns="http://www.w3.org/2000/svg"
 width="512.000000pt" height="512.000000pt" viewBox="0 0 512.000000 512.000000"
 preserveAspectRatio="xMidYMid meet">

<g transform="translate(0.000000,512.000000) scale(0.100000,-0.100000)"
fill="#000000" stroke="none">
<path d="M2350 5109 c-851 -73 -1602 -560 -2027 -1314 -146 -258 -254 -582
-299 -900 -24 -165 -24 -505 0 -670 105 -735 501 -1370 1111 -1784 791 -537
1811 -584 2650 -123 618 340 1079 932 1251 1606 162 634 76 1307 -238 1869
-238 427 -589 775 -1018 1012 -434 238 -941 346 -1430 304z m595 -178 c348
-62 656 -183 930 -366 569 -380 937 -944 1055 -1616 28 -157 38 -458 21 -620
-102 -991 -803 -1823 -1755 -2084 -242 -66 -351 -80 -636 -80 -285 0 -394 14
-634 80 -809 222 -1459 871 -1681 1679 -66 242 -80 351 -80 636 0 285 14 394
80 636 246 896 1007 1581 1927 1733 175 29 179 29 428 26 176 -2 251 -7 345
-24z"/>
<path d="M2410 4679 c-721 -49 -1372 -468 -1718 -1106 -158 -292 -238 -583
-255 -935 l-4 -78 79 0 78 0 0 53 c0 173 59 470 130 651 286 730 951 1215
1733 1262 l107 7 0 79 c0 68 -2 78 -17 77 -10 -1 -70 -5 -133 -10z"/>
<path d="M1672 3437 l-222 -222 226 -225 c124 -124 271 -274 326 -333 l102
-108 -327 -327 -326 -327 226 -229 226 -228 328 328 328 328 331 -328 330
-328 224 229 225 228 -326 327 -327 327 122 128 c66 70 213 220 326 333 l206
205 -222 222 -223 223 -332 -332 -333 -333 -333 333 -332 332 -223 -223z m560
-334 l328 -328 330 330 330 330 115 -115 114 -114 -324 -327 c-179 -180 -325
-331 -325 -336 0 -4 146 -154 325 -333 l325 -324 -108 -111 c-59 -60 -111
-112 -116 -114 -4 -2 -157 144 -338 325 l-329 329 -325 -327 c-180 -181 -329
-328 -332 -328 -4 0 -57 51 -119 112 l-113 113 327 327 326 326 -41 49 c-22
26 -169 176 -326 333 l-286 285 112 112 c62 62 115 113 118 113 3 0 152 -147
332 -327z"/>
</g>
</svg>
