<?xml version="1.0" standalone="no"?>
<!DOCTYPE svg PUBLIC "-//W3C//DTD SVG 20010904//EN"
 "http://www.w3.org/TR/2001/REC-SVG-20010904/DTD/svg10.dtd">
<svg version="1.0" xmlns="http://www.w3.org/2000/svg"
 width="512.000000pt" height="512.000000pt" viewBox="0 0 512.000000 512.000000"
 preserveAspectRatio="xMidYMid meet">

<g transform="translate(0.000000,512.000000) scale(0.100000,-0.100000)"
fill="#000000" stroke="none">
<path d="M255 4866 c-102 -25 -171 -81 -217 -174 l-33 -67 0 -2065 0 -2065 26
-56 c47 -100 129 -165 237 -188 75 -16 4509 -16 4584 0 108 23 190 88 237 188
l26 56 0 2065 0 2065 -26 56 c-47 100 -129 165 -237 188 -80 17 -4528 14
-4597 -3z m4578 -200 c18 -7 43 -26 57 -40 25 -28 25 -28 28 -257 l3 -229
-2361 0 -2361 0 3 229 c3 229 3 229 28 256 53 58 -100 54 2328 55 1878 0 2248
-2 2275 -14z m87 -2423 c0 -1665 0 -1699 -20 -1730 -10 -18 -31 -40 -47 -50
-26 -17 -128 -18 -2273 -21 -1508 -2 -2257 0 -2280 7 -20 6 -49 24 -65 41
l-30 31 -3 1710 -2 1709 2360 0 2360 0 0 -1697z"/>
<path d="M484 4484 c-60 -29 -73 -107 -25 -155 38 -38 87 -39 129 -4 56 47 51
118 -10 155 -39 24 -53 24 -94 4z"/>
<path d="M862 4480 c-41 -25 -56 -59 -48 -104 8 -44 47 -76 93 -76 45 0 69 14
89 52 45 87 -51 180 -134 128z"/>
<path d="M1270 4489 c-61 -24 -85 -85 -54 -137 34 -59 108 -70 155 -23 39 40
40 89 2 130 -32 33 -67 43 -103 30z"/>
<path d="M3665 3549 c-86 -13 -201 -54 -275 -97 -36 -20 -105 -77 -155 -127
-109 -108 -172 -219 -206 -361 -28 -116 -23 -292 11 -399 78 -248 268 -437
515 -515 146 -46 360 -37 510 22 171 67 336 227 415 402 68 150 84 350 41 509
-70 265 -286 481 -547 547 -91 24 -228 32 -309 19z m15 -501 l0 -302 213 -213
c173 -174 209 -216 197 -224 -8 -6 -37 -21 -65 -34 -165 -79 -367 -72 -527 18
-323 181 -387 625 -128 888 36 36 88 79 115 95 43 25 165 73 188 74 4 0 7
-136 7 -302z m360 244 c79 -38 207 -168 247 -252 82 -170 78 -357 -10 -523
l-30 -58 -184 183 -183 183 0 262 0 262 53 -16 c28 -8 77 -27 107 -41z"/>
<path d="M1687 3209 c-48 -28 -47 -18 -47 -814 l0 -745 -125 0 -125 0 0 423
c0 382 -2 425 -18 457 -26 54 -54 59 -327 59 -271 1 -307 -5 -335 -52 -19 -30
-20 -54 -20 -458 l0 -426 -62 -6 c-55 -5 -67 -10 -92 -38 -24 -27 -27 -38 -23
-73 4 -27 15 -49 32 -63 l26 -23 969 0 969 0 26 23 c17 14 28 36 32 63 5 36 1
46 -24 74 -29 32 -34 34 -116 38 l-87 5 0 744 c0 798 1 786 -49 813 -26 14
-580 13 -604 -1z m453 -874 l0 -685 -150 0 -150 0 0 685 0 685 150 0 150 0 0
-685z m-952 -317 l2 -368 -150 0 -150 0 0 363 c0 200 3 367 7 371 4 3 70 5
147 4 l141 -3 3 -367z"/>
<path d="M3064 1634 c-60 -29 -73 -107 -25 -155 l29 -29 707 0 c787 0 744 -4
766 69 15 50 -8 97 -56 117 -53 22 -1376 20 -1421 -2z"/>
<path d="M545 1057 c-17 -14 -28 -36 -32 -63 -5 -36 -1 -46 25 -75 25 -28 37
-34 72 -34 72 0 121 76 89 138 -30 59 -106 76 -154 34z"/>
<path d="M1007 1055 c-34 -34 -40 -67 -23 -110 29 -70 -97 -65 1776 -65 1858
0 1742 -4 1775 61 14 27 15 39 6 70 -23 75 138 69 -1784 69 l-1724 0 -26 -25z"/>
</g>
</svg>
