<svg width="17" height="16" viewBox="0 0 17 16" fill="none" xmlns="http://www.w3.org/2000/svg">
<g clip-path="url(#clip0_6_195)">
<path d="M16.1775 6.43309H15.5331V6.39989H8.33321V9.59983H12.8543C12.1947 11.4626 10.4224 12.7998 8.33321 12.7998C5.68245 12.7998 3.53329 10.6506 3.53329 7.99986C3.53329 5.34911 5.68245 3.19994 8.33321 3.19994C9.55678 3.19994 10.67 3.66154 11.5176 4.41552L13.7803 2.15276C12.3515 0.821186 10.4404 0 8.33321 0C3.91528 0 0.333344 3.58194 0.333344 7.99986C0.333344 12.4178 3.91528 15.9997 8.33321 15.9997C12.7511 15.9997 16.3331 12.4178 16.3331 7.99986C16.3331 7.46347 16.2779 6.93988 16.1775 6.43309Z" fill="#FFC107"/>
<path d="M1.25519 4.27633L3.88354 6.2039C4.59473 4.44313 6.3171 3.19995 8.33267 3.19995C9.55624 3.19995 10.6694 3.66154 11.517 4.41553L13.7798 2.15277C12.351 0.821193 10.4398 7.62939e-06 8.33267 7.62939e-06C5.25992 7.62939e-06 2.59516 1.73478 1.25519 4.27633Z" fill="#FF3D00"/>
<path d="M8.33333 16C10.3997 16 12.2773 15.2092 13.6968 13.9232L11.2209 11.8281C10.3907 12.4594 9.3763 12.8009 8.33333 12.8C6.25257 12.8 4.4858 11.4733 3.82021 9.6217L1.21146 11.6317C2.53543 14.2224 5.22419 16 8.33333 16Z" fill="#4CAF50"/>
<path d="M16.1775 6.43309H15.5331V6.39989H8.33319V9.59984H12.8543C12.5388 10.4864 11.9705 11.2611 11.2195 11.8282L11.2207 11.8274L13.6967 13.9226C13.5215 14.0818 16.3331 11.9998 16.3331 7.99987C16.3331 7.46348 16.2779 6.93989 16.1775 6.43309Z" fill="#1976D2"/>
</g>
<defs>
<clipPath id="clip0_6_195">
<rect x="0.333344" width="16" height="16" rx="8" fill="white"/>
</clipPath>
</defs>
</svg>
