<?xml version="1.0" standalone="no"?>
<!DOCTYPE svg PUBLIC "-//W3C//DTD SVG 20010904//EN"
 "http://www.w3.org/TR/2001/REC-SVG-20010904/DTD/svg10.dtd">
<svg version="1.0" xmlns="http://www.w3.org/2000/svg"
 width="512.000000pt" height="512.000000pt" viewBox="0 0 512.000000 512.000000"
 preserveAspectRatio="xMidYMid meet">

<g transform="translate(0.000000,512.000000) scale(0.100000,-0.100000)"
fill="#000000" stroke="none">
<path d="M1903 4766 c-58 -19 -104 -49 -151 -100 -72 -78 -81 -106 -117 -356
-14 -96 -27 -185 -30 -197 l-5 -23 -603 0 c-526 0 -610 -2 -658 -16 -176 -52
-301 -189 -329 -360 -13 -80 -13 -2919 0 -2999 28 -171 162 -315 337 -360 87
-23 4339 -23 4426 0 175 45 309 189 337 360 13 80 13 2919 0 2999 -28 171
-153 308 -329 360 -48 14 -132 16 -658 16 l-603 0 -5 23 c-3 12 -16 101 -30
197 -29 203 -38 241 -70 296 -31 53 -105 121 -163 147 -46 22 -55 22 -677 24
-499 2 -639 -1 -672 -11z m1246 -299 c8 -11 61 -326 61 -368 0 -5 -268 -9
-650 -9 -382 0 -650 4 -650 9 0 42 53 357 61 368 17 19 1161 19 1178 0z m1575
-691 c18 -8 46 -31 62 -52 l29 -37 3 -421 c2 -260 -1 -447 -8 -491 -21 -140
-113 -275 -234 -344 -111 -62 -98 -61 -788 -61 l-628 0 0 133 c0 148 -10 179
-72 217 -32 19 -52 20 -528 20 -476 0 -496 -1 -528 -20 -62 -38 -72 -69 -72
-217 l0 -133 -628 0 c-690 0 -677 -1 -788 61 -121 69 -213 204 -234 344 -7 44
-10 231 -8 491 l3 421 29 37 c16 21 43 44 60 52 47 20 4281 21 4330 0z m-1864
-1553 l0 -218 -150 -78 -150 -78 -150 78 -150 78 0 218 0 217 300 0 300 0 0
-217z m-2407 -83 c34 -16 98 -40 142 -52 78 -21 96 -22 723 -26 l642 -3 0 -92
c0 -74 4 -98 20 -124 24 -40 44 -52 316 -196 184 -98 228 -117 264 -117 36 0
80 19 264 117 272 144 292 156 316 196 16 26 20 50 20 124 l0 92 643 3 c626 4
644 5 722 26 92 26 185 67 250 112 l45 31 -2 -745 c-3 -734 -3 -745 -24 -772
-11 -15 -33 -37 -48 -48 l-27 -21 -2159 0 -2159 0 -27 21 c-15 11 -37 33 -48
48 -21 27 -21 38 -24 772 l-2 745 45 -31 c25 -17 73 -44 108 -60z"/>
</g>
</svg>
